<svg
    xmlns="http://www.w3.org/2000/svg"
    viewBox="0 0 108 108"
    id="vector">
    <g
        id="group_1"
        transform="translate(29.16 41.004227) scale(0.1368595 0.1368595)">
        <g
            id="group"
            transform="translate(0 150.89062)">
            <path
                id="path"
                d="M 86.484 -12.688 Q 83.047 -7.672 73.938 -3.328 Q 64.828 1 50.984 1 Q 33.125 1 21.688 -11.234 Q 10.266 -23.484 10.266 -42.938 L 10.266 -61.828 Q 10.266 -80.938 21.125 -92.969 Q 32 -105 49.297 -105 Q 65.813 -105 75.125 -96.594 Q 84.453 -88.203 85.922 -74.781 L 85.781 -74.781 L 77.984 -74.781 Q 76.156 -85.063 69.328 -91.422 Q 62.516 -97.781 49.297 -97.781 Q 35.516 -97.781 27.109 -87.719 Q 18.703 -77.672 18.703 -61.984 L 18.703 -42.938 Q 18.703 -26.813 27.625 -16.469 Q 36.563 -6.141 50.984 -6.141 Q 61.172 -6.141 68.313 -8.984 Q 75.453 -11.844 78.047 -15.234 L 78.047 -42 L 50.844 -42 L 50.844 -49.219 L 86.484 -49.219 L 86.484 -12.688 Z"
                fill="#c9510c"/>
            <path
                id="path_1"
                d="M 118.547 -63.859 Q 122.344 -70.734 128.672 -74.547 Q 135 -78.359 143.438 -78.359 Q 155.469 -78.359 161.891 -70.875 Q 168.328 -63.391 168.328 -47.625 L 168.328 -0.5 L 159.891 -0.5 L 159.891 -47.766 Q 159.891 -60.188 155 -65.594 Q 150.125 -71 141.547 -71 Q 132.891 -71 127.094 -66.438 Q 121.297 -61.891 118.547 -54.328 L 118.547 -0.5 L 110.109 -0.5 L 110.109 -111 L 118.547 -111 L 118.547 -63.859 Z"
                fill="#c9510c"/>
            <path
                id="path_2"
                d="M 264.016 -103.5 L 264.016 -33.672 Q 264.016 -16.813 253.781 -7.906 Q 243.547 1 227.094 1 Q 210.859 1 200.797 -7.938 Q 190.75 -16.891 190.75 -33.672 L 190.75 -103.5 L 199.188 -103.5 L 199.188 -33.672 Q 199.188 -20.516 206.922 -13.328 Q 214.656 -6.141 227.094 -6.141 Q 239.75 -6.141 247.688 -13.281 Q 255.641 -20.438 255.641 -33.672 L 255.641 -103.5 L 264.016 -103.5 Z"
                fill="#c9510c"/>
            <path
                id="path_3"
                d="M 348 -25.75 Q 348 -34.156 341.734 -39.5 Q 335.484 -44.844 319.953 -48.953 Q 303.141 -53.203 294.484 -60 Q 285.844 -66.797 285.844 -78.328 Q 285.844 -90.125 295.516 -97.563 Q 305.188 -105 320.375 -105 Q 336.188 -105 345.891 -96.078 Q 355.594 -87.172 355.313 -74.344 L 355.109 -74.344 L 347.375 -74.344 Q 347.375 -84.578 340.094 -91.172 Q 332.813 -97.781 320.375 -97.781 Q 308.063 -97.781 301.141 -92.25 Q 294.219 -86.734 294.219 -78.531 Q 294.219 -70.75 300.609 -65.547 Q 307.016 -60.344 322.688 -56.391 Q 339.219 -52.141 347.828 -44.922 Q 356.438 -37.703 356.438 -25.875 Q 356.438 -13.578 346.422 -6.281 Q 336.406 1 320.859 1 Q 305.531 1 294.109 -6.797 Q 282.688 -14.609 283.031 -29.563 L 283.172 -29.563 L 290.906 -29.563 Q 290.906 -17.641 299.828 -11.891 Q 308.766 -6.141 320.859 -6.141 Q 333.031 -6.141 340.516 -11.516 Q 348 -16.906 348 -25.75 Z"
                fill="#c9510c"/>
        </g>
    </g>
</svg>
